<svg width="0" height="0" class="hidden">
  <symbol xmlns="http://www.w3.org/2000/svg" viewBox="0 0 20 20" id="arrow-down">
    <path d="M16.2475 6.6574L10 12.7474L3.7525 6.6574C3.64088 6.54837 3.49103 6.48733 3.335 6.48733C3.17897 6.48733 3.02912 6.54837 2.9175 6.6574C2.86345 6.71036 2.82052 6.77356 2.7912 6.84332C2.76189 6.91308 2.74679 6.98798 2.74679 7.06365C2.74679 7.13932 2.76189 7.21422 2.7912 7.28398C2.82052 7.35374 2.86345 7.41694 2.9175 7.4699L9.56375 13.9499C9.68047 14.0637 9.83701 14.1273 10 14.1273C10.163 14.1273 10.3195 14.0637 10.4362 13.9499L17.0825 7.47115C17.1369 7.41816 17.1802 7.35479 17.2097 7.2848C17.2393 7.21481 17.2545 7.13962 17.2545 7.06365C17.2545 6.98768 17.2393 6.91248 17.2097 6.8425C17.1802 6.77251 17.1369 6.70914 17.0825 6.65615C16.9709 6.54712 16.821 6.48608 16.665 6.48608C16.509 6.48608 16.3591 6.54712 16.2475 6.65615V6.6574Z"></path>
  </symbol>
  <symbol  xmlns="http://www.w3.org/2000/svg" viewBox="0 0 18 18" id="calendar">
    <g clip-path="url(#clip0_1_196)">
      <path d="M16.3125 18H1.6875C0.75375 18 0 17.2463 0 16.3125V2.8125C0 1.87875 0.75375 1.125 1.6875 1.125H16.3125C17.2463 1.125 18 1.87875 18 2.8125V16.3125C18 17.2463 17.2463 18 16.3125 18ZM1.6875 2.25C1.3725 2.25 1.125 2.4975 1.125 2.8125V16.3125C1.125 16.6275 1.3725 16.875 1.6875 16.875H16.3125C16.6275 16.875 16.875 16.6275 16.875 16.3125V2.8125C16.875 2.4975 16.6275 2.25 16.3125 2.25H1.6875Z"></path>
      <path d="M5.0625 4.5C4.7475 4.5 4.5 4.2525 4.5 3.9375V0.5625C4.5 0.2475 4.7475 0 5.0625 0C5.3775 0 5.625 0.2475 5.625 0.5625V3.9375C5.625 4.2525 5.3775 4.5 5.0625 4.5ZM12.9375 4.5C12.6225 4.5 12.375 4.2525 12.375 3.9375V0.5625C12.375 0.2475 12.6225 0 12.9375 0C13.2525 0 13.5 0.2475 13.5 0.5625V3.9375C13.5 4.2525 13.2525 4.5 12.9375 4.5ZM17.4375 6.75H0.5625C0.2475 6.75 0 6.5025 0 6.1875C0 5.8725 0.2475 5.625 0.5625 5.625H17.4375C17.7525 5.625 18 5.8725 18 6.1875C18 6.5025 17.7525 6.75 17.4375 6.75Z"></path>
    </g>
    <defs>
      <clipPath id="clip0_1_196">
        <rect width="18" height="18"></rect>
      </clipPath>
    </defs>
  </symbol>
  <symbol  xmlns="http://www.w3.org/2000/svg" viewBox="0 0 32 32" id="pinterest">
    <g id="mdi:pinterest">
      <path id="Vector" d="M12.0533 28.7201C13.3333 29.1068 14.6267 29.3334 16 29.3334C19.5362 29.3334 22.9276 27.9287 25.4281 25.4282C27.9286 22.9277 29.3333 19.5363 29.3333 16.0001C29.3333 14.2491 28.9885 12.5153 28.3184 10.8976C27.6483 9.27996 26.6662 7.81011 25.4281 6.57199C24.19 5.33388 22.7201 4.35175 21.1025 3.68169C19.4848 3.01163 17.751 2.66675 16 2.66675C14.249 2.66675 12.5152 3.01163 10.8976 3.68169C9.27989 4.35175 7.81003 5.33388 6.57192 6.57199C4.07143 9.07248 2.66667 12.4639 2.66667 16.0001C2.66667 21.6668 6.22667 26.5334 11.2533 28.4534C11.1333 27.4134 11.0133 25.6934 11.2533 24.5068L12.7867 17.9201C12.7867 17.9201 12.4 17.1468 12.4 15.9201C12.4 14.0801 13.5467 12.7067 14.8533 12.7067C16 12.7067 16.5333 13.5468 16.5333 14.6268C16.5333 15.7734 15.7733 17.4134 15.3867 18.9868C15.16 20.2934 16.08 21.4401 17.4133 21.4401C19.7867 21.4401 21.6267 18.9068 21.6267 15.3334C21.6267 12.1334 19.3333 9.94675 16.04 9.94675C12.28 9.94675 10.0667 12.7468 10.0667 15.6934C10.0667 16.8401 10.44 18.0001 11.0533 18.7601C11.1733 18.8401 11.1733 18.9468 11.1333 19.1468L10.7467 20.6001C10.7467 20.8268 10.6 20.9068 10.3733 20.7468C8.66667 20.0001 7.68001 17.5734 7.68001 15.6134C7.68001 11.4001 10.6667 7.57342 16.4267 7.57342C21.0133 7.57342 24.5867 10.8667 24.5867 15.2401C24.5867 19.8268 21.7467 23.5068 17.68 23.5068C16.3867 23.5068 15.12 22.8134 14.6667 22.0001L13.7733 25.1601C13.4667 26.3068 12.6267 27.8401 12.0533 28.7601V28.7201Z"></path>
    </g>
  </symbol>
  <symbol  xmlns="http://www.w3.org/2000/svg" viewBox="0 0 22 22" id="play-button">
    <path d="M8.24267 3.65572C7.96389 3.49647 7.64819 3.41323 7.32714 3.41432C7.00609 3.4154 6.69096 3.50078 6.41326 3.6619C6.13557 3.82302 5.90506 4.05424 5.74479 4.33242C5.58451 4.6106 5.5001 4.926 5.5 5.24705V16.7549C5.5001 17.0759 5.58451 17.3913 5.74479 17.6695C5.90506 17.9477 6.13557 18.1789 6.41326 18.34C6.69096 18.5012 7.00609 18.5865 7.32714 18.5876C7.64819 18.5887 7.96389 18.5055 8.24267 18.3462L18.3113 12.5914C18.5917 12.431 18.8248 12.1993 18.9869 11.9199C19.1489 11.6404 19.2343 11.3231 19.2343 11C19.2343 10.677 19.1489 10.3597 18.9869 10.0802C18.8248 9.80079 18.5917 9.56913 18.3113 9.40872L8.24267 3.65572Z"></path>
  </symbol>
  <symbol  xmlns="http://www.w3.org/2000/svg" viewBox="0 0 32 32" id="skype">
    <g id="mdi:skype">
      <path id="Vector" d="M24 8C26.76 10.72 27.8 14.52 27.1467 18.0667C27.6933 19.0267 28 20.1467 28 21.3333C28 23.1014 27.2976 24.7971 26.0474 26.0474C24.7971 27.2976 23.1014 28 21.3333 28C20.1467 28 19.0267 27.6933 18.0667 27.1467C14.52 27.8 10.72 26.76 8 24C5.24 21.28 4.2 17.48 4.85333 13.9333C4.30667 12.9733 4 11.8533 4 10.6667C4 8.89856 4.70238 7.20286 5.95262 5.95262C7.20286 4.70238 8.89856 4 10.6667 4C11.8533 4 12.9733 4.30667 13.9333 4.85333C17.48 4.2 21.28 5.24 24 8ZM16.0533 22.88C19.88 22.88 21.7867 21.04 21.7867 18.56C21.7867 16.9733 21.04 15.28 18.1467 14.6267L15.4933 14.04C14.48 13.8133 13.3333 13.5067 13.3333 12.56C13.3333 11.6 14.1333 10.9333 15.6 10.9333C18.5733 10.9333 18.2933 12.9733 19.7733 12.9733C20.5467 12.9733 21.2133 12.52 21.2133 11.7333C21.2133 9.90667 18.2933 8.53333 15.8133 8.53333C13.1333 8.53333 10.2667 9.68 10.2667 12.72C10.2667 14.1867 10.7867 15.7467 13.6667 16.4667L17.2533 17.3733C18.3333 17.64 18.6 18.24 18.6 18.8C18.6 19.7067 17.6933 20.6 16.0533 20.6C12.84 20.6 13.28 18.1333 11.56 18.1333C10.7867 18.1333 10.2267 18.6667 10.2267 19.4267C10.2267 20.9067 12 22.88 16.0533 22.88Z"></path>
    </g>
  </symbol>
  <symbol  xmlns="http://www.w3.org/2000/svg" viewBox="0 0 32 32" id="telegram">
    <path d="M16 2.66675C8.63999 2.66675 2.66666 8.64008 2.66666 16.0001C2.66666 23.3601 8.63999 29.3334 16 29.3334C23.36 29.3334 29.3333 23.3601 29.3333 16.0001C29.3333 8.64008 23.36 2.66675 16 2.66675ZM22.1867 11.7334C21.9867 13.8401 21.12 18.9601 20.68 21.3201C20.4933 22.3201 20.12 22.6534 19.7733 22.6934C19 22.7601 18.4133 22.1868 17.6667 21.6934C16.4933 20.9201 15.8267 20.4401 14.6933 19.6934C13.3733 18.8268 14.2267 18.3468 14.9867 17.5734C15.1867 17.3734 18.6 14.2668 18.6667 13.9867C18.6759 13.9443 18.6747 13.9003 18.6631 13.8585C18.6515 13.8167 18.6298 13.7783 18.6 13.7468C18.52 13.6801 18.4133 13.7067 18.32 13.7201C18.2 13.7467 16.3333 14.9868 12.6933 17.4401C12.16 17.8001 11.68 17.9868 11.2533 17.9734C10.7733 17.9601 9.86666 17.7068 9.18666 17.4801C8.34666 17.2134 7.69332 17.0668 7.74666 16.6001C7.77332 16.3601 8.10666 16.1201 8.73332 15.8668C12.6267 14.1734 15.2133 13.0534 16.5067 12.5201C20.2133 10.9734 20.9733 10.7067 21.48 10.7067C21.5867 10.7067 21.84 10.7334 22 10.8667C22.1333 10.9734 22.1733 11.1201 22.1867 11.2268C22.1733 11.3068 22.2 11.5468 22.1867 11.7334Z"></path>
  </symbol>
  <symbol  xmlns="http://www.w3.org/2000/svg" viewBox="0 0 32 32" id="vk">
    <path d="M16.36 2.99976C8.98138 2.99976 3 8.98114 3 16.3598C3 23.7384 8.98138 29.7198 16.36 29.7198C23.7386 29.7198 29.72 23.7384 29.72 16.3598C29.72 8.98114 23.7386 2.99976 16.36 2.99976ZM21.498 18.0729C21.498 18.0729 22.6796 19.2391 22.9704 19.7805C22.9788 19.7916 22.9829 19.8027 22.9857 19.8083C23.104 20.0073 23.1318 20.1618 23.0734 20.2773C22.976 20.4693 22.642 20.564 22.5279 20.5723H20.4404C20.2956 20.5723 19.9922 20.5348 19.6248 20.2815C19.3423 20.0839 19.064 19.7596 18.7926 19.4437C18.3877 18.9733 18.037 18.5669 17.6835 18.5669C17.6386 18.5669 17.594 18.5739 17.5513 18.5878C17.2841 18.6741 16.9417 19.0554 16.9417 20.0713C16.9417 20.3886 16.6912 20.5709 16.5145 20.5709H15.5584C15.2327 20.5709 13.5363 20.4568 12.0333 18.8717C10.1935 16.9303 8.53744 13.0365 8.52352 13.0003C8.41915 12.7484 8.63486 12.6134 8.87005 12.6134H10.9784C11.2595 12.6134 11.3514 12.7846 11.4154 12.9363C11.4906 13.113 11.7661 13.8158 12.2184 14.6063C12.9518 15.8949 13.4013 16.4182 13.7618 16.4182C13.8293 16.4174 13.8957 16.4002 13.9552 16.3681C14.4256 16.1065 14.3379 14.4295 14.317 14.0816C14.317 14.0162 14.3156 13.3315 14.0749 13.0031C13.9023 12.7651 13.6087 12.6746 13.4305 12.6412C13.5026 12.5417 13.5976 12.4611 13.7075 12.406C14.0303 12.2446 14.6121 12.2209 15.1896 12.2209H15.5111C16.1373 12.2293 16.2988 12.2696 16.5256 12.3267C16.9849 12.4366 16.9946 12.7331 16.9542 13.7476C16.9417 14.0357 16.9292 14.3613 16.9292 14.7454C16.9292 14.8289 16.925 14.918 16.925 15.0126C16.9111 15.5289 16.8944 16.1148 17.259 16.3556C17.3066 16.3854 17.3615 16.4013 17.4177 16.4015C17.5443 16.4015 17.9256 16.4015 18.9582 14.6299C19.2767 14.0597 19.5534 13.4671 19.7863 12.8569C19.8072 12.8207 19.8684 12.7094 19.9408 12.6663C19.9942 12.639 20.0534 12.6252 20.1133 12.6259H22.5919C22.8619 12.6259 23.047 12.6663 23.0817 12.7706C23.143 12.9363 23.0706 13.4414 21.9392 14.9737L21.434 15.6403C20.4084 16.9846 20.4084 17.0528 21.498 18.0729Z"></path>
  </symbol>
</svg>